<svg width="20" height="20" viewBox="0 0 20 20" fill="none" xmlns="http://www.w3.org/2000/svg">
    <g clip-path="url(#clip0_3907_2818)">
        <g filter="url(#filter0_d_3907_2818)">
            <path fill-rule="evenodd" clip-rule="evenodd" d="M9.02563 3.82908C7.04125 1.89379 3.84042 2.09938 2.08662 4.27701C0.482268 6.29693 0.482268 9.66841 3.25737 11.7774C3.72391 12.1277 4.15528 12.4434 4.55819 12.7383C6.19034 13.9329 7.35555 14.7857 8.49985 16.2072C9.10463 16.9584 9.40702 17.3341 9.65623 17.4281C9.91334 17.5251 10.0764 17.5252 10.3337 17.4287C10.5831 17.3351 10.8858 16.9604 11.4911 16.211C12.64 14.7887 13.8056 13.9357 15.4367 12.742C15.8411 12.446 16.2742 12.1291 16.7426 11.7774C19.5177 9.66841 19.5177 6.29693 17.9134 4.27701C16.1595 2.11184 12.9483 1.89772 10.9607 3.83016C10.5896 4.19099 10.2611 4.62666 9.99277 5.13844C9.72438 4.62659 9.39622 4.1905 9.02563 3.82908ZM16.7433 5.21556C15.3095 3.45318 12.5031 3.58111 11.3212 5.83502L9.99277 8.36854L8.66432 5.83502C7.47824 3.57301 4.68599 3.44625 3.25806 5.21391C2.14886 6.61482 2.10111 9.01213 4.16175 10.5807C4.58741 10.9002 4.99336 11.1968 5.38257 11.4812C7.03748 12.6904 8.38976 13.6784 9.66828 15.2666C9.79638 15.4257 9.90411 15.5593 9.99646 15.6724C10.0887 15.5598 10.1963 15.4268 10.3242 15.2684C11.6068 13.6807 12.9584 12.6933 14.6125 11.4848C15.0032 11.1994 15.4107 10.9016 15.8382 10.5807C17.8981 9.01276 17.8512 6.61671 16.7433 5.21556Z" fill="white"/>
            <path d="M1.89192 4.1202L1.89191 4.12019L1.89086 4.12152C0.204584 6.24458 0.212794 9.77761 3.1061 11.9765L3.10727 11.9774C3.57503 12.3285 4.00743 12.645 4.41012 12.9397L4.41054 12.9401C6.04512 14.1364 7.18424 14.9716 8.30511 16.364L8.31119 16.3715C8.60846 16.7408 8.83919 17.0274 9.02682 17.2327C9.20946 17.4326 9.38224 17.5919 9.56798 17.662C9.71261 17.7166 9.8489 17.7509 9.9947 17.751C10.1405 17.7511 10.2769 17.7171 10.4216 17.6627C10.6074 17.593 10.7803 17.4341 10.9632 17.2347C11.151 17.0299 11.3819 16.744 11.6795 16.3756L11.6856 16.3681C12.8112 14.9747 13.9508 14.1392 15.5844 12.9437L15.5847 12.9435C15.9889 12.6477 16.423 12.33 16.8927 11.9774L16.8939 11.9765C19.7872 9.77761 19.7954 6.24458 18.1091 4.12151L18.1076 4.11965C16.263 1.84242 12.8814 1.61408 10.7865 3.65091C10.4933 3.93589 10.2263 4.26448 9.99283 4.6367C9.75948 4.26437 9.49281 3.9355 9.20018 3.6501C7.10869 1.61036 3.73682 1.82945 1.89192 4.1202ZM9.99679 15.2758C9.95488 15.2239 9.91038 15.1686 9.86302 15.1098C8.56384 13.496 7.18866 12.4912 5.5405 11.287L5.53006 11.2794C5.14092 10.995 4.73647 10.6995 4.31254 10.3813C2.37016 8.90226 2.42722 6.66705 3.45331 5.37005C4.77125 3.73984 7.34262 3.85272 8.44291 5.95111L9.77136 8.48464L9.99277 8.90689L10.2142 8.48464L11.5426 5.95111C12.6382 3.86177 15.2238 3.7458 16.5482 5.37198C17.5728 6.66927 17.6289 8.903 15.6874 10.3813C15.2617 10.7009 14.8556 10.9976 14.465 11.2829L14.4547 11.2905C12.8072 12.4941 11.4329 13.4981 10.1298 15.1113C10.0827 15.1696 10.0385 15.2243 9.99679 15.2758Z" stroke="black" stroke-opacity="0.04" stroke-width="0.5"/>
        </g>
    </g>
    <defs>
        <filter id="filter0_d_3907_2818" x="-0.499512" y="1.00098" width="20.999" height="18" filterUnits="userSpaceOnUse" color-interpolation-filters="sRGB">
            <feFlood flood-opacity="0" result="BackgroundImageFix"/>
            <feColorMatrix in="SourceAlpha" type="matrix" values="0 0 0 0 0 0 0 0 0 0 0 0 0 0 0 0 0 0 127 0" result="hardAlpha"/>
            <feOffset/>
            <feGaussianBlur stdDeviation="0.5"/>
            <feColorMatrix type="matrix" values="0 0 0 0 0 0 0 0 0 0 0 0 0 0 0 0 0 0 0.2 0"/>
            <feBlend mode="normal" in2="BackgroundImageFix" result="effect1_dropShadow_3907_2818"/>
            <feBlend mode="normal" in="SourceGraphic" in2="effect1_dropShadow_3907_2818" result="shape"/>
        </filter>
        <clipPath id="clip0_3907_2818">
            <rect width="20" height="20" fill="white" transform="translate(0 0.000976562)"/>
        </clipPath>
    </defs>
</svg>