<svg width="24" height="24" viewBox="0 0 24 24" fill="none" xmlns="http://www.w3.org/2000/svg">
    <path fill-rule="evenodd" clip-rule="evenodd" d="M19.5 9.23077C19.5 11.837 18.3337 14.4358 16.762 16.73C15.2023 19.0066 13.34 20.8426 12.1698 21.8917C12.1092 21.9461 12.0496 21.9627 12 21.9627C11.9504 21.9627 11.8908 21.9461 11.8302 21.8917C10.66 20.8426 8.79768 19.0066 7.23803 16.73C5.66627 14.4358 4.5 11.837 4.5 9.23077C4.5 4.92516 7.89344 1.5 12 1.5C16.1066 1.5 19.5 4.92516 19.5 9.23077ZM21 9.23077C21 15.3038 15.6081 20.8239 13.1711 23.0086C12.4958 23.614 11.5042 23.614 10.8289 23.0086C8.39192 20.8239 3 15.3038 3 9.23077C3 4.13276 7.02944 0 12 0C16.9706 0 21 4.13276 21 9.23077ZM14.5 9C14.5 10.3807 13.3807 11.5 12 11.5C10.6193 11.5 9.5 10.3807 9.5 9C9.5 7.61929 10.6193 6.5 12 6.5C13.3807 6.5 14.5 7.61929 14.5 9ZM16 9C16 11.2091 14.2091 13 12 13C9.79086 13 8 11.2091 8 9C8 6.79086 9.79086 5 12 5C14.2091 5 16 6.79086 16 9Z" fill="#9A1441"/>
</svg>