<svg width="88" height="80" viewBox="0 0 88 80" fill="none" xmlns="http://www.w3.org/2000/svg">
    <path fill-rule="evenodd" clip-rule="evenodd" d="M65.5 38C65.5 42.1421 62.1421 45.5 58 45.5C53.8579 45.5 50.5 42.1421 50.5 38C50.5 33.8579 53.8579 30.5 58 30.5C62.1421 30.5 65.5 33.8579 65.5 38ZM63.8116 44.8723C62.2436 46.1996 60.2153 47 58 47C53.0294 47 49 42.9706 49 38C49 33.0294 53.0294 29 58 29C62.9706 29 67 33.0294 67 38C67 40.2153 66.1996 42.2436 64.8723 43.8116L70.5303 49.4697C70.8232 49.7626 70.8232 50.2374 70.5303 50.5303C70.2374 50.8232 69.7626 50.8232 69.4697 50.5303L63.8116 44.8723Z" fill="#9A1441"/>
</svg>